<?xml version="1.0" encoding="UTF-8" standalone="no"?>
<!-- Created with Inkscape (http://www.inkscape.org/) -->

<svg
   xmlns:dc="http://purl.org/dc/elements/1.1/"
   xmlns:cc="http://creativecommons.org/ns#"
   xmlns:rdf="http://www.w3.org/1999/02/22-rdf-syntax-ns#"
   xmlns:svg="http://www.w3.org/2000/svg"
   xmlns="http://www.w3.org/2000/svg"
   xmlns:sodipodi="http://sodipodi.sourceforge.net/DTD/sodipodi-0.dtd"
   xmlns:inkscape="http://www.inkscape.org/namespaces/inkscape"
   width="210mm"
   height="297mm"
   viewBox="0 0 210 297"
   version="1.1"
   id="svg8"
   inkscape:version="0.92.3 (2405546, 2018-03-11)"
   sodipodi:docname="esoobligatoria.svg">
  <defs
     id="defs2" />
  <sodipodi:namedview
     id="base"
     pagecolor="#ffffff"
     bordercolor="#666666"
     borderopacity="1.0"
     inkscape:pageopacity="0.0"
     inkscape:pageshadow="2"
     inkscape:zoom="3.959798"
     inkscape:cx="305.0981"
     inkscape:cy="537.55744"
     inkscape:document-units="mm"
     inkscape:current-layer="layer1"
     showgrid="false"
     inkscape:window-width="1920"
     inkscape:window-height="1017"
     inkscape:window-x="-8"
     inkscape:window-y="-8"
     inkscape:window-maximized="1" />
  <metadata
     id="metadata5">
    <rdf:RDF>
      <cc:Work
         rdf:about="">
        <dc:format>image/svg+xml</dc:format>
        <dc:type
           rdf:resource="http://purl.org/dc/dcmitype/StillImage" />
        <dc:title></dc:title>
      </cc:Work>
    </rdf:RDF>
  </metadata>
  <g
     inkscape:label="Capa 1"
     inkscape:groupmode="layer"
     id="layer1">
    <text
       xml:space="preserve"
       style="font-style:normal;font-weight:normal;font-size:16.93333333px;line-height:1.25;font-family:'Franklin Gothic Heavy';letter-spacing:0px;word-spacing:0px;fill:#000000;fill-opacity:1;stroke:none;stroke-width:0.26458332;-inkscape-font-specification:'Franklin Gothic Heavy, Normal';font-stretch:normal;font-variant:normal;text-anchor:start;text-align:start;writing-mode:lr;font-variant-ligatures:normal;font-variant-caps:normal;font-variant-numeric:normal;font-feature-settings:normal;"
       x="41.694046"
       y="160.69255"
       id="text4520"><tspan
         sodipodi:role="line"
         id="tspan4518"
         x="41.694046"
         y="160.69255"
         style="stroke-width:0.26458332;-inkscape-font-specification:'Franklin Gothic Heavy, Normal';font-family:'Franklin Gothic Heavy';font-weight:normal;font-style:normal;font-stretch:normal;font-variant:normal;font-size:16.93333333px;text-anchor:start;text-align:start;writing-mode:lr;font-variant-ligatures:normal;font-variant-caps:normal;font-variant-numeric:normal;font-feature-settings:normal;">ESO</tspan></text>
    <text
       xml:space="preserve"
       style="font-style:normal;font-variant:normal;font-weight:normal;font-stretch:normal;font-size:6.3499999px;line-height:1.25;font-family:'Segoe Print';-inkscape-font-specification:'Segoe Print, Normal';font-variant-ligatures:normal;font-variant-caps:normal;font-variant-numeric:normal;font-feature-settings:normal;text-align:start;letter-spacing:0px;word-spacing:0px;writing-mode:lr-tb;text-anchor:start;fill:#000000;fill-opacity:1;stroke:none;stroke-width:0.26458332"
       x="62.541065"
       y="141.98367"
       id="text4524"><tspan
         sodipodi:role="line"
         id="tspan4522"
         x="62.541065"
         y="141.98367"
         style="font-style:normal;font-variant:normal;font-weight:normal;font-stretch:normal;font-size:6.3499999px;font-family:'Segoe Print';-inkscape-font-specification:'Segoe Print, Normal';font-variant-ligatures:normal;font-variant-caps:normal;font-variant-numeric:normal;font-feature-settings:normal;text-align:start;writing-mode:lr-tb;text-anchor:start;stroke-width:0.26458332">Obligatoria</tspan></text>
    <g
       transform="matrix(-0.01750749,0.26400346,-0.26400346,-0.01750749,248.64785,61.313778)"
       id="g1168">
      <path
         style="clip-rule:evenodd;fill-rule:evenodd"
         inkscape:connector-curvature="0"
         id="path42"
         d="m 411.41,620.771 c 0.857,-0.961 1.686,-1.816 2.428,-2.74 0.559,-0.693 0.885,-1.498 0.789,-2.443 -0.178,-1.789 -0.916,-2.615 -2.695,-2.754 -3.213,-0.25 -6.387,-0.068 -9.428,1.139 -5.865,2.324 -11.91,4.115 -17.896,6.076 -3.379,1.107 -6.875,1.449 -10.383,1.643 -3.025,0.168 -6.061,0.162 -9.092,0.236 -1.996,0.049 -3.992,0.107 -5.99,0.146 -0.467,0.008 -0.934,-0.049 -1.42,-0.076 -0.453,-0.904 -0.369,-1.793 -0.324,-2.639 0.053,-0.951 0.211,-1.908 0.418,-2.84 0.283,-1.268 0.477,-2.5 -0.189,-3.719 -0.08,-0.146 0.092,-0.432 0.186,-0.803 0.393,0.027 0.779,-0.006 1.131,0.09 2.732,0.744 5.506,0.92 8.313,0.639 2.305,-0.23 4.619,-0.395 6.906,-0.742 3.945,-0.602 7.896,-1.211 11.799,-2.033 2.49,-0.525 4.885,-1.496 7.348,-2.168 3.545,-0.967 7.064,-2 10.561,-3.139 3.986,-1.299 8.125,-1.621 12.316,-1.387 2.256,0.125 4.422,0.484 6.504,1.422 2.305,1.037 3.443,2.764 3.438,5.254 -0.006,1.961 -0.559,3.807 -1.529,5.479 -1.725,2.967 -3.551,5.875 -5.424,8.955 0.383,0.191 0.75,0.471 1.156,0.561 1.678,0.373 3.127,1.188 4.492,2.184 0.486,0.355 0.756,0.816 0.496,1.506 -0.152,0.102 -0.328,0.275 -0.541,0.352 -1.949,0.711 -3.873,1.516 -5.865,2.076 -2.902,0.813 -5.422,2.297 -7.842,4.014 -1.104,0.781 -2.221,1.543 -3.229,2.242 -0.848,-0.145 -1.111,-0.617 -1.125,-1.217 -0.018,-0.717 0.088,-1.438 0.066,-2.154 -0.086,-2.885 -0.533,-5.719 -1.275,-8.508 -0.35,-1.313 -0.725,-2.619 -1.023,-3.941 -0.121,-0.535 -0.141,-1.113 -0.09,-1.662 0.07,-0.783 0.822,-1.174 1.578,-0.912 1.795,0.621 3.593,1.233 5.435,1.863 z m -2.597,13.68 c 0.658,-0.404 1.049,-0.652 1.447,-0.889 1.576,-0.938 3.098,-1.99 4.748,-2.773 2.012,-0.957 4.137,-1.68 6.205,-2.523 0.328,-0.135 0.611,-0.377 1.016,-0.633 -1.094,-0.787 -2.172,-1.037 -3.279,-1.221 -0.545,-0.092 -1.096,-0.199 -1.611,-0.389 -0.936,-0.348 -1.152,-1.111 -0.49,-1.875 2.324,-2.672 3.928,-5.816 5.813,-8.773 0.908,-1.424 1.402,-3.053 1.561,-4.748 0.199,-2.145 -0.57,-3.572 -2.529,-4.404 -1.164,-0.496 -2.406,-0.906 -3.652,-1.08 -5.387,-0.76 -10.654,-0.244 -15.77,1.689 -1.34,0.508 -2.723,0.912 -4.1,1.316 -3.516,1.033 -7.143,1.689 -10.547,3.113 -0.432,0.18 -0.936,0.18 -1.406,0.262 -2.832,0.494 -5.678,0.922 -8.492,1.496 -3.92,0.797 -7.865,1.344 -11.865,1.43 -1.516,0.031 -3.033,-0.066 -4.551,-0.07 -0.533,-0.002 -1.066,0.094 -1.563,0.143 -0.361,1.928 -0.77,3.701 -0.5,5.658 0.555,0.035 1.018,0.094 1.48,0.088 1.037,-0.014 2.076,-0.072 3.115,-0.088 5.023,-0.076 10.055,0.191 15.061,-0.576 1.82,-0.281 3.627,-0.559 5.377,-1.133 1.898,-0.623 3.789,-1.268 5.693,-1.867 3.504,-1.1 7.025,-2.146 10.404,-3.607 2.816,-1.215 5.803,-1.748 8.838,-1.975 1.186,-0.09 2.406,-0.029 3.584,0.145 1.49,0.219 2.783,0.965 3.322,2.432 0.639,1.732 0.43,3.496 -0.625,5.037 -0.898,1.313 -1.93,2.533 -2.922,3.777 -0.506,0.633 -0.99,0.729 -1.664,0.363 -0.279,-0.15 -0.518,-0.377 -0.795,-0.535 -0.973,-0.557 -2.125,-0.807 -3.732,-0.789 0.236,0.951 0.385,1.893 0.709,2.77 0.531,1.438 0.854,2.904 1.016,4.422 0.192,1.819 0.436,3.633 0.704,5.807 z" />
      <path
         style="clip-rule:evenodd;fill:#ffffff;fill-rule:evenodd"
         inkscape:connector-curvature="0"
         id="path600"
         d="m 408.813,634.451 c -0.268,-2.174 -0.512,-3.988 -0.705,-5.809 -0.162,-1.518 -0.484,-2.984 -1.016,-4.422 -0.324,-0.877 -0.473,-1.818 -0.709,-2.77 1.607,-0.018 2.76,0.232 3.732,0.789 0.277,0.158 0.516,0.385 0.795,0.535 0.674,0.365 1.158,0.27 1.664,-0.363 0.992,-1.244 2.023,-2.465 2.922,-3.777 1.055,-1.541 1.264,-3.305 0.625,-5.037 -0.539,-1.467 -1.832,-2.213 -3.322,-2.432 -1.178,-0.174 -2.398,-0.234 -3.584,-0.145 -3.035,0.227 -6.021,0.76 -8.838,1.975 -3.379,1.461 -6.9,2.508 -10.404,3.607 -1.904,0.6 -3.795,1.244 -5.693,1.867 -1.75,0.574 -3.557,0.852 -5.377,1.133 -5.006,0.768 -10.037,0.5 -15.061,0.576 -1.039,0.016 -2.078,0.074 -3.115,0.088 -0.463,0.006 -0.926,-0.053 -1.48,-0.088 -0.27,-1.957 0.139,-3.73 0.5,-5.658 0.496,-0.049 1.029,-0.145 1.563,-0.143 1.518,0.004 3.035,0.102 4.551,0.07 4,-0.086 7.945,-0.633 11.865,-1.43 2.814,-0.574 5.66,-1.002 8.492,-1.496 0.471,-0.082 0.975,-0.082 1.406,-0.262 3.404,-1.424 7.031,-2.08 10.547,-3.113 1.377,-0.404 2.76,-0.809 4.1,-1.316 5.115,-1.934 10.383,-2.449 15.77,-1.689 1.246,0.174 2.488,0.584 3.652,1.08 1.959,0.832 2.729,2.26 2.529,4.404 -0.158,1.695 -0.652,3.324 -1.561,4.748 -1.885,2.957 -3.488,6.102 -5.813,8.773 -0.662,0.764 -0.445,1.527 0.49,1.875 0.516,0.189 1.066,0.297 1.611,0.389 1.107,0.184 2.186,0.434 3.279,1.221 -0.404,0.256 -0.688,0.498 -1.016,0.633 -2.068,0.844 -4.193,1.566 -6.205,2.523 -1.65,0.783 -3.172,1.836 -4.748,2.773 -0.398,0.239 -0.788,0.487 -1.446,0.891 z" />
    </g>
  </g>
</svg>
